<?xml version="1.0" encoding="utf-8"?>
<!-- Generator: Adobe Illustrator 23.0.2, SVG Export Plug-In . SVG Version: 6.00 Build 0)  -->
<svg version="1.1" id="swallow" xmlns="http://www.w3.org/2000/svg" xmlns:xlink="http://www.w3.org/1999/xlink" x="0px" y="0px"
	 viewBox="0 0 245.18 245.18" style="enable-background:new 0 0 245.18 245.18;" xml:space="preserve">
<style type="text/css">
	.st0{fill:#FFFFFF;}
	.st1{stroke:#000000;stroke-miterlimit:10;}
</style>
<path class="st0" d="M96.05,187.02c1.51-0.33,2.6-1.72,2.71-3.34c-0.41-0.2-0.84-0.36-1.28-0.48c-2.55-0.72-4.8-0.15-4.83-0.14
	c-0.3,0.08-0.58,0.18-0.85,0.29c0,0.51,0.08,1.09,0.37,1.67C92.82,186.25,94.39,187.38,96.05,187.02z"/>
<path class="st0" d="M131.78,200.58c7.32,5.11,17.36,5.83,24.19,4.76c6.06-0.95,10.77-3.38,12.6-6.5c0.43-0.74,0.71-1.58,0.88-2.49
	c-1.62,0.23-3.3,0.34-5,0.34c-8.37,0-17.01-2.41-19.84-3.27c-0.32,0.25-0.63,0.5-0.95,0.74
	C140.07,196.82,136.08,198.97,131.78,200.58z"/>
<path class="st0" d="M147.45,191.09c5.84,1.59,20.01,4.74,27.6,0.45c2.97-1.68,4.71-4.04,4.75-4.09c2.01-2.8,2.53-5.93,2.58-8.25
	c-6.86,2.22-16.7,3.79-28.24,4.38C152.24,186.2,150.03,188.74,147.45,191.09z"/>
<path class="st0" d="M75.02,186.79c-7.15,2.53-8.99,4.01-9.44,4.55c0.43,0.27,1.3,0.67,2.16,1.07c1.12,0.52,2.65,1.22,4.55,2.22
	c1.11,0.58,2.21,1.19,3.3,1.82C75.03,193.58,74.72,190.28,75.02,186.79z"/>
<g>
	<g>
		<path d="M122.59,245.18C54.99,245.18,0,190.19,0,122.59C0,54.99,54.99,0,122.59,0c67.6,0,122.59,54.99,122.59,122.59
			C245.18,190.19,190.19,245.18,122.59,245.18z M122.59,3C56.65,3,3,56.65,3,122.59c0,65.94,53.65,119.59,119.59,119.59
			c65.94,0,119.59-53.65,119.59-119.59C242.18,56.65,188.53,3,122.59,3z"/>
		<path d="M144.18,232.32c-0.87,0-1.74-0.02-2.61-0.06c-13.52-0.65-41.39-7.24-50.1-27.53c-2.05-4.78-6.14-17.17,0.12-29.04
			c1.52-2.88,5.98-9.94,14.62-13.31c11-4.29,24.37-0.84,34.06,8.79l-2.12,2.13c-8.85-8.79-20.96-11.98-30.85-8.12
			c-7.7,3-11.7,9.33-13.06,11.92c-5.66,10.73-1.9,22.08-0.02,26.46c8.13,18.93,34.62,25.1,47.49,25.71
			c16.74,0.81,34.21-6.66,50.56-21.59c16.34-14.92,30.43-36.24,40.73-61.64l2.78,1.13C214.65,199.25,178.94,232.32,144.18,232.32z"
			/>
		<path d="M90.41,200.87c-1.99-1.28-4.07-2.48-6.18-3.59c-1.83-0.96-3.27-1.62-4.42-2.15c-2.46-1.13-3.81-1.76-4.01-3.35
			c-0.29-2.31,1.95-4.66,13.88-8.62l0.95,2.85c-9.07,3.01-11.21,4.74-11.71,5.33c0.43,0.27,1.3,0.67,2.16,1.07
			c1.12,0.52,2.65,1.22,4.55,2.22c2.19,1.14,4.34,2.4,6.41,3.72L90.41,200.87z"/>
		<path d="M153.51,161.24l-2.98-0.38c1.19-9.32,0.57-18.01-1.85-25.82c-0.65-2.09-1.31-3.76-1.94-5.38
			c-1.28-3.24-2.38-6.04-2.49-10.31c-0.21-8.38,3.54-14.83,7.06-20.22c9.47-14.48,19.75-24.4,25.28-29.72l1.12-1.08
			c10.16-9.86,19.74-20.98,28.45-33.07l2.43,1.75c-8.82,12.23-18.51,23.5-28.8,33.47l-1.12,1.08c-5.44,5.24-15.56,15-24.85,29.21
			c-3.28,5.01-6.76,10.99-6.57,18.51c0.09,3.73,1.06,6.18,2.28,9.28c0.63,1.59,1.34,3.39,2.02,5.59
			C154.1,142.37,154.76,151.49,153.51,161.24z"/>
		<path d="M90.86,104.07l-2.88-0.83c4.85-16.83,8.55-34.16,11.01-51.49c2.29-16.13,3.54-32.58,3.73-48.88l3,0.03
			c-0.18,16.43-1.45,33-3.76,49.26C99.48,69.64,95.74,87.1,90.86,104.07z"/>
		<path d="M98.72,116.91l-2.79-1.1c5.92-15,10.53-30.43,13.71-45.88c4.09-19.88,10.27-49.92-1.53-57.85
			c-1.25-0.84-2.7-1.43-4.31-1.76l0.59-2.94c1.99,0.4,3.8,1.15,5.39,2.21c13.48,9.05,7.3,39.04,2.79,60.94
			C109.37,86.15,104.7,101.75,98.72,116.91z"/>
		<path d="M106.51,127.67l-2.74-1.22c3.32-7.49,20.03-46.01,22.49-68.66c0.69-6.36,0.57-14.91-3.94-19.52
			c-1.64-1.67-3.75-2.92-6.28-3.71l0.89-2.86c3.01,0.94,5.54,2.44,7.53,4.47c4.28,4.37,5.89,11.75,4.78,21.94
			C126.73,81.21,109.87,120.1,106.51,127.67z"/>
		<path d="M112.99,136.82l-2.67-1.36c19.46-38.3,27.31-61.2,26.46-66.9c-0.72-4.79-3.25-7.01-3.36-7.1c-1.47-1.22-3.4-1.9-5.74-2.01
			l0.14-3c3,0.14,5.53,1.05,7.52,2.7c0.14,0.12,3.51,2.97,4.41,8.96C140.89,75.77,130.64,102.1,112.99,136.82z"/>
		<path d="M119.75,147.68l-2.56-1.56c11.91-19.64,25.14-44.7,26.52-56.17c0.33-2.72,1.01-8.37-1.89-10.64
			c-1.09-0.85-2.63-1.2-4.59-1.03l-0.26-2.99c2.74-0.24,4.99,0.32,6.7,1.66c4.23,3.32,3.41,10.1,3.02,13.36
			C144.88,105.34,125.61,138.02,119.75,147.68z"/>
		<path d="M152.8,102.33l-2.75-1.2c0.02-0.04,1.6-3.79-0.61-6.84c-1.49-2.06-3.8-2.57-4.47-2.67l0.46-2.96
			c1.23,0.19,4.33,0.96,6.44,3.88C155.08,96.97,152.9,102.12,152.8,102.33z"/>
		<path d="M124.81,157.92l-2.28-1.94c4.45-5.23,8.63-10.77,12.43-16.49c3.6-5.42,6.94-11.11,9.91-16.9l2.67,1.37
			c-3.03,5.9-6.42,11.68-10.08,17.19C133.59,146.96,129.33,152.61,124.81,157.92z"/>
		<path d="M131.77,166.86l-2.25-1.98c3.38-3.84,6.59-7.9,9.55-12.07c3.79-5.35,7.27-11.01,10.31-16.83l2.66,1.39
			c-3.11,5.94-6.65,11.71-10.52,17.17C138.5,158.8,135.22,162.95,131.77,166.86z"/>
		<path d="M138.29,173.48l-2.14-2.1c2.38-2.42,4.92-4.72,7.56-6.86c2.59-2.1,5.33-4.07,8.15-5.86l1.61,2.53
			c-2.72,1.73-5.37,3.64-7.87,5.66C143.05,168.91,140.59,171.14,138.29,173.48z"/>
		<path d="M129.13,201.5l-0.9-2.86c5-1.58,9.58-3.9,13.63-6.89c16.6-12.29,19.92-33.02,21.01-39.82c0.09-0.54,0.16-0.99,0.22-1.35
			c1.77-9.9,0.55-21.04-0.34-29.17c-0.48-4.39-0.86-7.86-0.63-9.94c0.62-5.61,4.33-10.58,10.49-18.82c1.87-2.5,3.99-5.34,6.29-8.56
			c2.18-3.05,3.93-5.36,5.78-7.81c2.75-3.64,5.6-7.39,10.02-13.85c2.64-3.85,6.16-9.16,10.02-16.11c1.45-2.61,2.86-5.29,4.18-7.95
			l2.69,1.33c-1.34,2.71-2.77,5.42-4.24,8.08c-3.92,7.06-7.49,12.44-10.17,16.35c-4.46,6.51-7.33,10.3-10.1,13.96
			c-1.84,2.43-3.58,4.72-5.73,7.74c-2.32,3.25-4.45,6.1-6.33,8.61c-5.85,7.83-9.38,12.56-9.91,17.35c-0.19,1.75,0.19,5.24,0.63,9.29
			c0.91,8.31,2.16,19.7,0.31,30.02c-0.06,0.34-0.13,0.78-0.21,1.29c-1.14,7.11-4.6,28.74-22.19,41.76
			C139.32,197.36,134.44,199.83,129.13,201.5z"/>
		<path d="M165.21,120.95l-2.22-2.02c10.2-11.19,19.96-23.01,29.01-35.15c8.76-11.75,17.07-24.06,24.68-36.59l2.56,1.56
			c-7.66,12.61-16.02,25.01-24.84,36.83C185.29,97.79,175.47,109.69,165.21,120.95z"/>
		<path d="M166.26,134.08l-1.92-2.31c15.45-12.82,29.34-27.41,41.3-43.35c7-9.34,13.43-19.27,19.09-29.52l2.63,1.45
			c-5.73,10.37-12.23,20.42-19.32,29.87C195.94,106.35,181.88,121.11,166.26,134.08z"/>
		<path d="M166.03,147.28l-1.66-2.5c14.96-9.9,28.51-21.11,40.3-33.32c9.89-10.25,15.45-17.94,14.59-26.91
			c-0.31-3.19-1.42-6.33-3.32-9.34l2.54-1.6c2.15,3.41,3.41,6.99,3.77,10.65c0.97,10.07-5.18,18.67-15.41,29.28
			C194.89,125.91,181.16,137.26,166.03,147.28z"/>
		<path d="M163.5,160.45l-1.17-2.76c6.69-2.83,29.38-12.99,40.68-25.21c4.14-4.48,6.3-8.74,6.42-12.66
			c0.09-3.03-0.78-6.08-2.59-9.05l2.56-1.56c2.12,3.47,3.14,7.07,3.03,10.7c-0.15,4.74-2.51,9.52-7.21,14.61
			C193.83,146.83,172.25,156.75,163.5,160.45z"/>
		<path d="M159.84,170.98l-0.11-3c9.48-0.35,18.3-2.67,26.22-6.89c6.3-3.36,13.44-7.17,16.2-14.99c1.33-3.76,1.49-7.89,0.5-12.26
			l2.93-0.67c1.12,4.93,0.92,9.62-0.59,13.92c-3.14,8.93-10.83,13.03-17.62,16.64C179.04,168.17,169.78,170.61,159.84,170.98z"/>
		<path d="M153.28,183.61l-0.14-3c20.97-0.98,34.17-5.15,36.37-8.77c1.48-2.42,1.65-4.87,1.65-4.89c0.15-2.56-0.81-4.69-1.63-6.04
			l2.56-1.57c1.5,2.45,2.22,5.14,2.07,7.78c-0.01,0.13-0.2,3.19-2.08,6.28C188.87,178.65,173.65,182.66,153.28,183.61z"/>
		<path d="M164.43,196.69c-9.35,0-19.08-3.02-20.6-3.51l0.92-2.85c0.84,0.27,20.69,6.59,30.21,1.21c2.97-1.68,4.71-4.04,4.75-4.09
			l0,0c2.65-3.69,2.71-7.97,2.52-10.2l2.99-0.27c0.24,2.64,0.15,7.74-3.07,12.22l-0.03-0.02c-0.9,1.48-3.54,3.77-5.68,4.97
			C173.1,196.03,168.81,196.69,164.43,196.69z"/>
		<path d="M150.28,208.76c-7.46,0-16.3-1.93-22.61-7.57c-2.72-2.43-4.91-5.52-7.03-8.51c-3.06-4.32-5.96-8.41-9.81-9.49
			c-2.55-0.72-4.8-0.15-4.83-0.14c-2.54,0.68-4.21,2.48-5.16,3.87l-2.47-1.7c1.75-2.55,4.19-4.35,6.86-5.07
			c0.32-0.08,3.13-0.77,6.41,0.15c4.88,1.37,8.07,5.87,11.45,10.64c2.02,2.86,4.12,5.81,6.58,8.01c7.39,6.6,18.78,7.56,26.28,6.38
			c6.06-0.95,10.77-3.38,12.6-6.5c0.73-1.25,1.08-2.75,1.04-4.49l3-0.07c0.05,2.3-0.43,4.34-1.45,6.07
			c-2.31,3.94-7.68,6.83-14.72,7.94C154.56,208.59,152.48,208.76,150.28,208.76z"/>
		<path d="M132.03,198.85c-2.12-5.41-6.36-12.83-14.56-17.41c-2.99-1.67-7.51-4.2-13.24-3.37c-7.41,1.07-11.84,7.01-13.03,8.81
			l-2.51-1.65c1.74-2.64,6.69-8.92,15.1-10.13c6.73-0.97,11.78,1.85,15.13,3.72c8.97,5.01,13.59,13.06,15.89,18.93L132.03,198.85z"
			/>
		<path d="M108.75,190.09c-2.63,0-4.88-1.73-5.89-3.71c-0.84-1.63-0.79-3.24-0.6-4.3l2.95,0.53c-0.11,0.61-0.14,1.52,0.32,2.41
			c0.64,1.24,2.21,2.37,3.86,2.01c1.74-0.37,2.92-2.17,2.7-4.09l2.98-0.34c0.4,3.43-1.82,6.67-5.05,7.36
			C109.59,190.05,109.16,190.09,108.75,190.09z"/>
		<path d="M88,212.62l-3-0.06c0.05-2.33-0.02-4.69-0.2-7.01c-0.24-3.11-0.69-6.23-1.34-9.28l2.94-0.62
			c0.67,3.18,1.14,6.43,1.39,9.67C87.98,207.74,88.05,210.19,88,212.62z"/>
		<path d="M81.61,187.75c-3.66-10.2-8.69-19.71-14.94-28.27c-3.25-4.44-8.16-11.16-16.49-17.71c-5.66-4.45-11.94-8.09-18.66-10.84
			l1.13-2.78c6.98,2.85,13.5,6.63,19.38,11.25c8.66,6.8,13.71,13.72,17.06,18.29c6.42,8.79,11.59,18.56,15.34,29.03L81.61,187.75z"
			/>
		<path d="M23.03,135.41c-2.36,0-4.74-0.48-6.73-1.44c-3.11-1.49-8.16-5.44-7.38-10.77c0.61-4.17,4.62-6.96,8.09-7.79
			c5.98-1.43,11.82,2.95,14.72,7.62c1.13,1.82,2.67,4.31,1.79,6.99l0,0c-0.58,1.75-2.15,3.26-4.44,4.23
			C27.25,135.02,25.14,135.41,23.03,135.41z M19.43,118.12c-0.56,0-1.14,0.06-1.72,0.2c-2.1,0.5-5.39,2.33-5.82,5.3
			c-0.49,3.36,3.15,6.4,5.71,7.64c2.99,1.44,7.23,1.53,10.3,0.22c1.46-0.62,2.46-1.5,2.76-2.41c0.44-1.35-0.58-3-1.49-4.47
			C27.68,122.19,23.91,118.12,19.43,118.12z"/>
		<path d="M50.64,139.85l-2.71-1.28c1.16-2.45,1.67-5.1,1.48-7.68c-0.42-5.72-4.06-9.33-5.6-10.62c-3.32-2.77-4.13-2.56-4.26-2.49
			c-0.69,0.37-0.77,4.7,0.91,9.88c0.69,2.11,1.67,4.13,2.92,6.01l-2.5,1.66c-1.4-2.11-2.5-4.38-3.27-6.75
			c-0.37-1.15-3.52-11.25,0.51-13.44c2.55-1.39,5.84,1.35,7.61,2.82c1.84,1.53,6.17,5.83,6.67,12.7
			C52.63,133.76,52.02,136.94,50.64,139.85z"/>
		<path d="M36.13,145.77c-4.05,0-8.17-1.02-10.24-2.67c-0.89-0.71-1.37-1.51-1.44-2.39c-0.07-0.86-0.28-3.47,8.59-6.45
			c2.93-0.98,6-1.41,9.17-1.26l-0.14,3c-2.78-0.13-5.5,0.25-8.07,1.11c-4.68,1.57-6.25,2.92-6.52,3.38c0.68,1.06,5.9,2.88,11.35,2.1
			c3.37-0.49,6.65-2.04,9.48-4.51l1.97,2.26c-3.27,2.84-7.08,4.65-11.02,5.22C38.25,145.7,37.19,145.77,36.13,145.77z"/>
		<path d="M67.58,156.83l-2.8-1.08c2.63-6.79,3-13.2,1.08-18.53c-1.15-3.2-2.25-4.65-2.71-4.97c-0.79,0.7-1.92,4.32-2.36,8.5
			c-0.25,2.41-0.17,4.87,0.23,7.3l-2.96,0.49c-0.45-2.7-0.53-5.42-0.25-8.1c0.34-3.28,1.52-10.94,5.1-11.23
			c0.79-0.07,3.17-0.26,5.78,7C70.85,142.22,70.47,149.35,67.58,156.83z"/>
		<path d="M57.03,159.5c-2.07,0-4.09-0.26-6.04-0.77c-0.1-0.03-10.52-2.84-9.96-7.28c0.19-1.53,1.49-3.69,10.51-4.78
			c2.72-0.33,5.48-0.28,8.22,0.14l-0.46,2.96c-2.47-0.38-4.96-0.42-7.4-0.13c-5.58,0.67-7.51,1.75-7.87,2.18
			c0.38,0.9,3.71,2.93,7.73,4c4.33,1.15,9.14,0.82,13.9-0.95l1.04,2.81C63.47,158.89,60.2,159.5,57.03,159.5z"/>
		<path d="M80.07,178.13l-2.37-1.84c2.73-3.51,7.06-10.52,5.29-17.97c-1-4.21-3.53-7.78-4.53-7.65c-0.02,0-1.63,0.24-3.18,7.61
			c-0.59,2.83-0.67,5.75-0.22,8.69l-2.97,0.45c-0.5-3.29-0.41-6.57,0.25-9.76c1.37-6.56,3.22-9.73,5.82-9.98
			c3.97-0.38,6.93,6.53,7.74,9.94C87.97,166.3,83.14,174.2,80.07,178.13z"/>
		<path d="M73.38,179.23c-4.08,0-8.67-0.86-12.87-3.64c-3.94-2.6-8.96-7.95-7.24-11.16c1.42-2.66,5.98-2.14,11.79-1.18
			c3.11,0.51,6.17,1.38,9.09,2.57l-1.13,2.78c-2.71-1.11-5.55-1.91-8.44-2.38c-1.94-0.32-7.84-1.29-8.67-0.35
			c-0.26,0.83,2.26,4.58,6.27,7.23c5.54,3.66,12,3.46,16.45,2.65l0.54,2.95C77.46,179,75.49,179.23,73.38,179.23z"/>
		<path d="M184.64,179.74l-1.69-2.48c7.83-5.33,15.88-10.57,23.91-15.58c11.22-7,22.8-13.77,34.4-20.14l1.44,2.63
			c-11.56,6.34-23.09,13.09-34.26,20.05C200.45,169.22,192.44,174.44,184.64,179.74z"/>
		<path d="M204.98,134.72l-1.74-2.44c6.66-4.75,13.03-10.03,18.92-15.68c6.41-6.14,12.38-12.83,17.75-19.89l2.39,1.82
			c-5.46,7.18-11.54,13.99-18.06,20.24C218.24,124.52,211.76,129.89,204.98,134.72z"/>
		<g>
			<path d="M113.06,162.88c-3.92-6.65-8.28-13.21-12.97-19.48c-2.62-3.51-4.47-5.76-6.26-7.93c-1.74-2.12-3.54-4.3-6.02-7.62
				c-8.75-11.7-13.14-17.58-15.01-23.73c-1.74-5.74-0.9-8.86,1.89-19.2c1.23-4.56,2.91-10.79,4.95-19.4l0-0.01
				c0.18-0.74,4.32-18.37,7.89-38.91c1.24-7.17,2.36-14.4,3.33-21.5l2.97,0.4c-0.97,7.14-2.09,14.41-3.34,21.61
				c-3.58,20.62-7.75,38.34-7.93,39.08c-2.05,8.66-3.74,14.93-4.98,19.5c-2.75,10.2-3.41,12.62-1.91,17.55
				c1.71,5.65,6,11.38,14.54,22.8c2.44,3.26,4.13,5.32,5.93,7.51c1.81,2.2,3.68,4.47,6.34,8.04c4.75,6.36,9.18,13.01,13.15,19.75
				L113.06,162.88z"/>
			<path d="M125.4,164.68c-3.37-8.29-7.41-16.12-12.01-23.28c-2.54-3.96-6.14-8.9-13.31-18.75c-3.62-4.96-5.53-7.53-6.68-9.07
				c-0.9-1.21-1.36-1.83-1.82-2.49c-8.31-12.13-6.45-27.76-4.3-45.86c0.17-1.46,0.35-2.95,0.52-4.45
				c2.06-17.81,3.52-36.6,4.34-55.86l3,0.13c-0.83,19.33-2.29,38.2-4.36,56.08c-0.17,1.51-0.35,2.99-0.52,4.46
				c-2.16,18.22-3.87,32.61,3.8,43.82c0.44,0.64,0.88,1.23,1.75,2.39c1.15,1.54,3.08,4.12,6.7,9.1
				c7.21,9.89,10.82,14.86,13.41,18.89c4.7,7.31,8.83,15.31,12.27,23.77L125.4,164.68z"/>
			<path d="M126.25,165.51c-2.39-0.94-4.88-1.54-7.4-1.8c-1.46-0.15-2.94-0.18-4.41-0.09l-0.17-3c1.63-0.09,3.27-0.06,4.89,0.11
				c2.8,0.28,5.55,0.95,8.19,1.99L126.25,165.51z"/>
		</g>
	</g>
	<path class="st0" d="M207.33,47.77c-3.92,7.06-7.49,12.44-10.17,16.35c-4.46,6.51-7.33,10.3-10.1,13.96
		c-1.84,2.43-3.58,4.72-5.73,7.74c-2.32,3.25-4.45,6.1-6.33,8.61c-5.85,7.83-9.38,12.56-9.91,17.35c-0.11,1.02-0.03,2.65,0.15,4.63
		c9.38-10.44,18.37-21.4,26.75-32.64c8.54-11.45,16.65-23.45,24.1-35.65c-1.77-2.22-3.62-4.37-5.54-6.46
		C209.52,43.72,208.45,45.77,207.33,47.77z"/>
	<path class="st0" d="M218.96,74.44c1.85,3.16,2.96,6.46,3.28,9.83c0.87,8.99-3.95,16.81-12.28,25.93c1.73,3.17,2.57,6.43,2.46,9.71
		c-0.07,2.2-0.63,4.4-1.67,6.64c3.95-3.16,7.77-6.48,11.4-9.96c6.24-5.98,12.05-12.48,17.31-19.34
		c-2.67-12.35-7.25-23.99-13.42-34.6C223.8,66.65,221.43,70.57,218.96,74.44z"/>
	<path class="st0" d="M194.4,85.58c-8.98,12.03-18.65,23.76-28.74,34.87c0.02,0.21,0.05,0.42,0.07,0.63
		c0.29,2.65,0.62,5.62,0.86,8.77c14.54-12.35,27.68-26.27,39.04-41.43c6.82-9.09,13.08-18.75,18.64-28.71
		c-1.93-3.11-4-6.14-6.21-9.05C210.73,62.61,202.78,74.35,194.4,85.58z"/>
	<path class="st0" d="M115.92,139.78c0.88,1.37,1.73,2.77,2.57,4.19c11.56-19.28,23.89-42.96,25.22-54.01
		c0.33-2.72,1.01-8.37-1.89-10.64c-0.89-0.7-2.11-1.04-3.59-1.05c-3.42,12.28-12.19,32.81-24.84,57.76
		C114.36,137.41,115.18,138.64,115.92,139.78z"/>
	<path d="M179.79,70.49l-1.12,1.08c-5.44,5.24-15.56,15-24.85,29.21c-3.28,5.01-6.76,10.99-6.57,18.51
		c0.09,3.73,1.06,6.18,2.28,9.28c0.63,1.59,1.34,3.39,2.02,5.59c2.55,8.23,3.21,17.34,1.96,27.09l-0.09-0.01
		c-2.7,1.72-5.33,3.61-7.82,5.62c-2.55,2.06-5.01,4.29-7.3,6.63l-0.88-0.86c-3.49-3.28-7.44-5.72-11.54-7.24
		c-0.36-0.14-0.73-0.27-1.09-0.39c-0.4-0.13-0.8-0.25-1.2-0.36c-0.22-0.06-0.44-0.13-0.66-0.19c-0.42-0.11-0.84-0.2-1.26-0.28
		c-0.25-0.05-0.5-0.11-0.76-0.16c-0.28-0.05-0.57-0.09-0.85-0.13c-0.4-0.06-0.8-0.12-1.21-0.17c-1.41-0.14-2.85-0.17-4.28-0.1
		c-2.5,0.15-4.95,0.65-7.28,1.56c-7.7,3-11.7,9.33-13.06,11.92c-0.6,1.13-1.07,2.27-1.47,3.41c2.59-2.37,6.25-4.7,11.04-5.39
		c6.73-0.97,11.78,1.85,15.13,3.72c8.25,4.61,12.81,11.78,15.28,17.47c2.71-1.28,5.27-2.79,7.64-4.55
		c16.6-12.29,19.92-33.02,21.01-39.82c0.09-0.54,0.16-0.99,0.22-1.35c1.77-9.9,0.55-21.04-0.34-29.17
		c-0.48-4.39-0.86-7.86-0.63-9.94c0.62-5.61,4.33-10.58,10.49-18.82c1.87-2.5,3.99-5.34,6.29-8.56c2.18-3.05,3.93-5.36,5.78-7.81
		c2.75-3.64,5.6-7.39,10.02-13.85c2.64-3.85,6.16-9.16,10.02-16.11c1.27-2.29,2.5-4.62,3.67-6.96c-0.29-0.3-0.57-0.59-0.86-0.88
		C198.98,50.14,189.67,60.91,179.79,70.49z"/>
	<path class="st0" d="M111.44,133.24c18.63-36.95,26.17-59.08,25.33-64.68c-0.72-4.79-3.25-7.01-3.36-7.1
		c-1.17-0.97-2.64-1.58-4.36-1.85c-2.94,22.5-18.24,58.3-22.19,67.27C108.66,129.35,110.16,131.44,111.44,133.24z"/>
	<path class="st0" d="M99.02,116.13c0.95,1.28,2.09,2.84,3.49,4.76c0.82,1.12,1.58,2.17,2.31,3.17
		c4.86-11.18,19.18-45.43,21.44-66.27c0.69-6.36,0.57-14.91-3.94-19.52c-1.21-1.24-2.68-2.24-4.39-2.99
		c-0.43,11.36-3.09,24.31-5.34,35.25C109.42,85.88,104.85,101.21,99.02,116.13z"/>
	<path class="st0" d="M166.84,133.58c0.16,3.08,0.21,6.28,0.07,9.47c13.95-9.47,26.65-20.08,37.76-31.59
		c9.89-10.25,15.45-17.94,14.59-26.91c-0.24-2.46-0.96-4.89-2.15-7.26c-2.9,4.41-5.92,8.73-9.07,12.92
		C196.09,106.15,182.23,120.73,166.84,133.58z"/>
	<path class="st0" d="M141.71,229.26c16.74,0.81,34.21-6.66,50.56-21.59c15.32-13.99,28.65-33.59,38.75-56.92
		c-7.61,4.36-15.17,8.86-22.56,13.48c-7.78,4.85-15.56,9.92-23.16,15.08c-0.07,2.76-0.71,6.5-3.14,9.89l-0.03-0.02
		c-0.9,1.48-3.54,3.77-5.68,4.97c-1.19,0.67-2.5,1.18-3.89,1.57c-0.14,1.72-0.6,3.28-1.4,4.65c-2.31,3.94-7.68,6.83-14.72,7.94
		c-1.86,0.29-3.94,0.46-6.13,0.46c-7.46,0-16.3-1.93-22.61-7.57c-2.72-2.43-4.91-5.52-7.03-8.51c-1.93-2.72-3.79-5.34-5.86-7.18
		c-0.71,2.2-2.48,3.97-4.76,4.46c-0.43,0.09-0.86,0.14-1.27,0.14c-2.63,0-4.88-1.73-5.89-3.71c-0.22-0.42-0.37-0.84-0.48-1.25
		c-0.63,0.6-1.15,1.23-1.53,1.79l-2.47-1.7c1.75-2.55,4.19-4.35,6.86-5.07c0.32-0.08,3.13-0.77,6.41,0.15
		c4.88,1.37,8.07,5.87,11.45,10.64c1.85,2.61,3.76,5.3,5.96,7.42c0.82-0.27,1.62-0.56,2.41-0.88c-2.28-5.24-6.47-11.83-13.99-16.04
		c-2.99-1.67-7.51-4.2-13.24-3.37c-7.06,1.02-11.42,6.46-12.83,8.52c-0.75,7.33,1.49,13.86,2.81,16.94
		C102.34,222.47,128.83,228.64,141.71,229.26z"/>
	<path d="M224.24,118.77c-5.77,5.53-11.99,10.69-18.48,15.38c0.88,4.57,0.63,8.93-0.78,12.95c-2.32,6.58-7.1,10.53-12.17,13.6
		c1,2.07,1.47,4.27,1.34,6.44c0,0.08-0.09,1.37-0.64,3.09c4.43-2.9,8.89-5.76,13.35-8.54c8.53-5.32,17.26-10.51,26.06-15.49
		c0.02-0.06,0.05-0.11,0.07-0.17l0.13,0.05c2.49-1.41,4.99-2.8,7.49-4.17c1.03-6.29,1.57-12.74,1.57-19.32
		c0-7.31-0.66-14.48-1.93-21.43C235.33,107.37,229.96,113.29,224.24,118.77z"/>
	<path class="st0" d="M203.01,132.48c4.14-4.48,6.3-8.74,6.42-12.66c0.07-2.44-0.48-4.88-1.64-7.29c-0.32,0.34-0.63,0.67-0.96,1.01
		c-11.78,12.21-25.3,23.41-40.2,33.33c-0.15,1.42-0.33,2.84-0.58,4.23c-0.06,0.34-0.13,0.78-0.21,1.29
		c-0.17,1.06-0.39,2.45-0.71,4.08C173.92,152.58,192.97,143.34,203.01,132.48z"/>
	<path class="st0" d="M189.51,171.85c1.48-2.42,1.65-4.87,1.65-4.89c0.11-1.86-0.37-3.49-0.95-4.76c-0.96,0.53-1.91,1.04-2.84,1.54
		c-8.01,4.27-16.89,6.66-26.4,7.17c-1.25,3.12-2.83,6.36-4.81,9.54C175.36,179.22,187.41,175.28,189.51,171.85z"/>
	<path class="st0" d="M185.95,161.09c6.3-3.36,13.44-7.17,16.2-14.99c1.04-2.95,1.36-6.12,0.97-9.45
		c-11.38,10.94-30.09,19.73-38.77,23.44c-0.55,2.34-1.28,4.97-2.24,7.74C170.69,167.2,178.7,164.95,185.95,161.09z"/>
	<path class="st1" d="M65.86,137.21c-1.15-3.2-2.25-4.65-2.71-4.97c-0.79,0.7-1.92,4.32-2.36,8.5c-0.24,2.27-0.17,4.59,0.17,6.88
		c1.81,1.95,3.37,3.81,4.72,5.53C67.46,147.33,67.54,141.87,65.86,137.21z"/>
	<path class="st1" d="M55.9,165.86c-0.26,0.83,2.26,4.58,6.27,7.23c4.77,3.15,10.22,3.44,14.48,2.94c-1.28-2.6-2.65-5.14-4.12-7.62
		c-2.57-1.01-5.24-1.76-7.96-2.2C62.63,165.89,56.73,164.91,55.9,165.86z"/>
	<path class="st1" d="M82.99,158.32c-1-4.21-3.53-7.78-4.53-7.65c-0.02,0-1.63,0.24-3.18,7.61c-0.58,2.76-0.65,5.61-0.25,8.47
		c1.46,2.46,2.82,4.97,4.1,7.55C81.69,170.47,84.47,164.56,82.99,158.32z"/>
	<path class="st1" d="M44.03,151.83c0.38,0.9,3.71,2.93,7.73,4c3.74,0.99,7.84,0.88,11.95-0.31c-1.39-1.79-3.01-3.75-4.91-5.8
		c-2.3-0.31-4.62-0.34-6.89-0.07C46.32,150.32,44.39,151.4,44.03,151.83z"/>
	<path class="st1" d="M49.41,130.88c-0.42-5.72-4.06-9.33-5.6-10.62c-3.32-2.77-4.13-2.56-4.26-2.49c-0.69,0.37-0.77,4.7,0.91,9.88
		c0.65,2.01,1.59,3.95,2.76,5.75c1.84,1.09,3.64,2.25,5.39,3.48C49.28,134.92,49.56,132.88,49.41,130.88z"/>
	<path class="st1" d="M19.43,118.12c-0.56,0-1.14,0.06-1.72,0.2c-2.1,0.5-5.39,2.33-5.82,5.3c-0.49,3.36,3.15,6.4,5.71,7.64
		c2.99,1.44,7.23,1.53,10.3,0.22c1.46-0.62,2.46-1.5,2.76-2.41c0.44-1.35-0.58-3-1.49-4.47C27.68,122.19,23.91,118.12,19.43,118.12z
		"/>
	<path class="st1" d="M27.48,140.48c0.68,1.06,5.9,2.88,11.35,2.1c2.78-0.4,5.5-1.55,7.96-3.32c-1.65-1.15-3.34-2.25-5.08-3.27
		c-2.66-0.08-5.25,0.28-7.71,1.11C29.32,138.68,27.75,140.02,27.48,140.48z"/>
	<path class="st0" d="M235.29,148.31c-21.18,51.42-56.61,84.01-91.11,84.01c-0.87,0-1.74-0.02-2.61-0.06
		c-13.52-0.65-41.39-7.24-50.1-27.53c-0.45-1.04-0.99-2.45-1.51-4.14c-0.97-0.61-1.96-1.21-2.97-1.79c0.36,2.16,0.64,4.34,0.8,6.52
		c0.19,2.42,0.26,4.88,0.21,7.31l-3-0.06c0.05-2.33-0.02-4.69-0.2-7.01c-0.22-2.87-0.63-5.76-1.2-8.59
		c-1.52-0.78-2.77-1.36-3.78-1.82c-2.46-1.13-3.81-1.76-4.01-3.35c-0.2-1.59,0.8-3.19,5.32-5.33c-0.96-2.57-2-5.1-3.13-7.57
		c-1.41,0.21-2.96,0.35-4.61,0.35c-4.08,0-8.67-0.86-12.87-3.64c-3.94-2.6-8.96-7.95-7.24-11.16c1.42-2.66,5.98-2.14,11.79-1.18
		c1.68,0.28,3.35,0.67,4.98,1.14c-1.08-1.67-2.2-3.31-3.37-4.91c-0.33-0.45-0.68-0.93-1.05-1.43c-2.88,0.95-5.77,1.45-8.59,1.45
		c-2.07,0-4.09-0.26-6.04-0.77c-0.1-0.03-10.52-2.84-9.96-7.28c0.19-1.53,1.49-3.69,10.51-4.78c1.34-0.16,2.69-0.23,4.05-0.21
		c-1.62-1.55-3.42-3.12-5.41-4.69c-0.28-0.22-0.58-0.44-0.86-0.66c-3.04,2.39-6.5,3.92-10.06,4.44c-1.01,0.15-2.06,0.21-3.12,0.21
		c-4.05,0-8.17-1.02-10.24-2.67c-0.89-0.71-1.37-1.51-1.44-2.39c-0.07-0.86-0.28-3.47,8.59-6.45c1.23-0.41,2.5-0.71,3.78-0.92
		c-1.33-0.66-2.69-1.29-4.07-1.87c-0.8,1.13-2.06,2.09-3.68,2.78c-1.82,0.78-3.93,1.16-6.04,1.16c-2.36,0-4.74-0.48-6.73-1.44
		c-3.11-1.49-8.16-5.44-7.38-10.77c0.61-4.17,4.62-6.96,8.09-7.79c5.98-1.43,11.82,2.95,14.72,7.62c0.93,1.5,2.11,3.46,2.02,5.6
		c1.6,0.68,3.17,1.41,4.72,2.18c-0.31-0.73-0.6-1.47-0.85-2.23c-0.37-1.15-3.52-11.25,0.51-13.44c2.55-1.39,5.84,1.35,7.61,2.82
		c1.84,1.53,6.17,5.83,6.67,12.7c0.2,2.7-0.24,5.47-1.27,8.06c0.3,0.23,0.61,0.45,0.91,0.69c2.07,1.63,3.93,3.26,5.62,4.87
		c-0.03-1.29,0.01-2.57,0.15-3.84c0.34-3.28,1.52-10.94,5.1-11.23c0.79-0.07,3.17-0.26,5.78,7c2.09,5.81,1.81,12.66-0.81,19.84
		c0.43,0.58,0.84,1.14,1.22,1.67c0.95,1.3,1.86,2.62,2.75,3.96c0.08-1.34,0.23-2.68,0.5-3.99c1.37-6.56,3.22-9.73,5.82-9.98
		c3.97-0.38,6.93,6.53,7.74,9.94c1.94,8.17-2.24,15.65-5.29,19.78c1.18,2.57,2.27,5.18,3.26,7.85c1.4-0.56,3.06-1.16,4.95-1.81
		c0.51-2.56,1.38-5.17,2.75-7.77c1.52-2.88,5.98-9.94,14.62-13.31c1.83-0.71,3.72-1.19,5.65-1.48c-3.6-5.97-7.54-11.85-11.76-17.49
		c-2.62-3.51-4.47-5.76-6.26-7.93c-1.74-2.12-3.54-4.3-6.02-7.62c-8.75-11.7-13.14-17.58-15.01-23.73c-1.74-5.74-0.9-8.86,1.89-19.2
		c1.23-4.56,2.91-10.79,4.95-19.4l0-0.01c0.18-0.74,4.32-18.37,7.89-38.91c1.11-6.41,2.12-12.87,3.01-19.24
		C40.12,21.41,3,67.74,3,122.59c0,65.94,53.65,119.59,119.59,119.59c58.03,0,106.53-41.55,117.34-96.46
		C238.38,146.58,236.83,147.44,235.29,148.31z"/>
	<path class="st0" d="M108.11,12.08c-0.78-0.53-1.65-0.94-2.58-1.27c-0.44,13.82-1.64,27.7-3.57,41.36
		c-2.46,17.3-6.15,34.59-10.96,51.4c0.8,2.03,1.79,3.98,3.06,5.84c0.44,0.64,0.88,1.23,1.75,2.39c0.3,0.41,0.67,0.9,1.1,1.47
		c5.45-14.2,9.74-28.76,12.74-43.34C113.73,50.05,119.92,20.01,108.11,12.08z"/>
	<path class="st0" d="M124,154.18c3.89-4.7,7.58-9.62,10.95-14.7c3.51-5.28,6.76-10.82,9.68-16.46c-0.21-1.12-0.35-2.32-0.38-3.67
		c-0.18-7.41,2.73-13.31,5.84-18.31c0.22-0.56,1.38-3.95-0.65-6.76c-0.89-1.23-2.07-1.9-3.02-2.27
		c-2.85,15.27-20.12,44.83-26.22,54.92C121.53,149.3,122.8,151.71,124,154.18z"/>
	<path class="st0" d="M150.68,159.43c0.71-6.53,0.53-12.74-0.56-18.54c-2.63,4.7-5.5,9.28-8.61,13.66
		c-2.67,3.76-5.54,7.42-8.55,10.93c1.83,1.1,3.61,2.38,5.29,3.83c1.75-1.67,3.58-3.28,5.46-4.8
		C145.94,162.72,148.28,161.01,150.68,159.43z"/>
	<path class="st0" d="M146.73,129.66c-0.33-0.83-0.64-1.64-0.93-2.44c-2.57,4.76-5.36,9.44-8.35,13.93
		c-3.69,5.55-7.73,10.93-12.03,16.03c0.87,1.9,1.71,3.82,2.51,5.77c0.79,0.32,1.58,0.66,2.35,1.05c3.1-3.58,6.05-7.33,8.79-11.18
		c3.68-5.18,7.04-10.66,10.02-16.29c-0.14-0.5-0.26-1-0.41-1.49C148.03,132.94,147.37,131.27,146.73,129.66z"/>
	<path class="st0" d="M105.62,7.69c1.51,0.43,2.91,1.06,4.16,1.9c6.11,4.1,8.17,12.51,8.19,22.51c2.54,0.94,4.73,2.3,6.48,4.08
		c4.06,4.15,5.72,11.03,4.92,20.44c2.32,0.34,4.33,1.19,5.96,2.54c0.14,0.12,3.51,2.97,4.41,8.96c0.24,1.6-0.03,4.02-0.74,7.16
		c1.84,0.13,3.41,0.69,4.67,1.68c3.72,2.92,3.54,8.51,3.17,12.04c1.48,0.46,3.51,1.43,5.03,3.54c0.83,1.15,1.3,2.35,1.54,3.5
		c8.86-12.8,18.06-21.68,23.18-26.62l1.12-1.08c9.85-9.56,19.15-20.32,27.65-31.99C183.85,15.71,154.68,3,122.59,3
		c-5.74,0-11.38,0.42-16.9,1.2C105.67,5.36,105.65,6.52,105.62,7.69z"/>
	<path d="M82.57,66.2c-2.05,8.66-3.74,14.93-4.98,19.5c-2.75,10.2-3.41,12.62-1.91,17.55c1.71,5.65,6,11.38,14.54,22.8
		c2.44,3.26,4.13,5.32,5.93,7.51c1.81,2.2,3.68,4.47,6.34,8.04c4.57,6.12,8.82,12.5,12.68,18.98c1.65-0.05,3.31,0.05,4.97,0.28
		c0.43,0.06,0.85,0.11,1.27,0.19c0.15,0.03,0.3,0.06,0.45,0.09c0.59,0.11,1.18,0.24,1.77,0.39c0.14,0.03,0.27,0.08,0.41,0.11
		c0.03,0.01,0.07,0.02,0.1,0.03c-3.1-7.18-6.71-13.98-10.75-20.27c-2.54-3.96-6.14-8.9-13.31-18.75c-3.62-4.96-5.53-7.53-6.68-9.07
		c-0.9-1.21-1.36-1.83-1.82-2.49c-8.31-12.13-6.45-27.76-4.3-45.86c0.17-1.46,0.35-2.95,0.52-4.45c1.4-12.1,2.51-24.67,3.35-37.52
		c-0.21,1.29-0.43,2.58-0.65,3.86C86.92,47.75,82.75,65.46,82.57,66.2z"/>
	<path class="st0" d="M90.78,61.13c-0.17,1.51-0.35,2.99-0.52,4.46c-1.5,12.63-2.77,23.41-0.87,32.57
		c4.15-15.23,7.38-30.81,9.6-46.41c2.21-15.54,3.44-31.37,3.69-47.08c-2.56,0.43-5.09,0.94-7.59,1.53
		C94.25,25.13,92.81,43.6,90.78,61.13z"/>
</g>
</svg>
